<?xml version="1.0" encoding="utf-8"?>
<!-- Generator: Adobe Illustrator 27.3.1, SVG Export Plug-In . SVG Version: 6.00 Build 0)  -->
<svg version="1.1" id="Слой_1" xmlns="http://www.w3.org/2000/svg" xmlns:xlink="http://www.w3.org/1999/xlink" x="0px" y="0px"
	 viewBox="0 0 104 76" style="enable-background:new 0 0 104 76;" xml:space="preserve">
<style type="text/css">
	.st0{fill:#A5A5A5;}
	.st1{fill:#A5A5A5;stroke:#A5A5A5;stroke-width:3;stroke-miterlimit:10;}
	.st2{fill:#308C99;stroke:#308C99;stroke-width:3;stroke-miterlimit:10;}
</style>
<g>
	<path class="st0" d="M33.22,17.26h-2.42v-5.22h-6.26v5.22H22.1V5.5h2.43v4.9h6.26V5.5h2.42V17.26z"/>
	<path class="st0" d="M45.41,14.52h-5.42l-1.13,2.74h-2.53L41.61,5.5h2.18l5.3,11.76h-2.54L45.41,14.52z M40.67,12.87h4.06
		L42.7,7.99L40.67,12.87z"/>
	<path class="st0" d="M54.8,15.62h6.35v1.63h-8.79V5.5h2.43V15.62z"/>
	<path class="st0" d="M66.85,15.62h6.35v1.63h-8.79V5.5h2.43V15.62z"/>
	<path class="st0" d="M83.46,12.01h-5.75v3.62h6.72v1.63h-9.15V5.5h9.09v1.65h-6.65v3.25h5.75V12.01z"/>
	<path class="st0" d="M98.46,17.26h-2.43l-6.24-8.34v8.34h-2.43V5.5h2.43l6.26,8.38V5.5h2.41V17.26z"/>
</g>
<g>
	<path class="st1" d="M2.81,3.01H14.1c0.1,0,0.18,0.08,0.18,0.18v9.88c0,0.1-0.08,0.18-0.18,0.18H2.81c-0.1,0-0.18-0.08-0.18-0.18
		V3.2C2.63,3.09,2.71,3.01,2.81,3.01z"/>
	<path class="st2" d="M6.59,22.86h10.62c0.04,0,0.07,0.04,0.07,0.09v50.21c0,0.05-0.03,0.09-0.07,0.09H6.59
		c-0.04,0-0.07-0.04-0.07-0.09V22.95C6.53,22.9,6.56,22.86,6.59,22.86z"/>
	<path class="st2" d="M6.69,6.12h10.42c0.09,0,0.16,0.08,0.16,0.18v9.78c0,0.1-0.07,0.18-0.16,0.18H6.69
		c-0.09,0-0.16-0.08-0.16-0.18V6.3C6.53,6.2,6.6,6.12,6.69,6.12z"/>
	<path class="st2" d="M30.09,36.96v36.26c0,0.02-0.01,0.03-0.03,0.03h-7.07c-0.02,0-0.03-0.01-0.03-0.03V22.88
		c0-0.02,0.01-0.03,0.03-0.03h9.89c0.01,0,0.02,0.01,0.03,0.02l8.07,29.94c0.01,0.03,0.06,0.03,0.06-0.01V22.88
		c0-0.02,0.01-0.03,0.03-0.03h7c0.02,0,0.03,0.01,0.03,0.03v50.34c0,0.02-0.01,0.03-0.03,0.03h-8.09c-0.01,0-0.02-0.01-0.03-0.02
		l-9.8-36.28C30.14,36.93,30.09,36.93,30.09,36.96z"/>
	<path class="st2" d="M61.89,45.25h9.83c0.11,0,0.2,0.09,0.2,0.2v6.81c0,0.11-0.09,0.2-0.2,0.2h-9.83c-0.11,0-0.2,0.09-0.2,0.2
		v20.42c0,0.11-0.09,0.2-0.2,0.2h-7.53c-0.11,0-0.2-0.09-0.2-0.2V23.05c0-0.11,0.09-0.2,0.2-0.2h20.56c0.11,0,0.2,0.09,0.2,0.2v6.81
		c0,0.11-0.09,0.2-0.2,0.2H61.89c-0.11,0-0.2,0.09-0.2,0.2v14.8C61.7,45.16,61.78,45.25,61.89,45.25z"/>
	<path class="st2" d="M77.9,34.95c0-4.08,1.03-7.21,3.1-9.4c2.06-2.18,5.04-3.28,8.93-3.28c3.89,0,6.86,1.09,8.93,3.28
		c2.06,2.19,3.1,5.32,3.1,9.4v26.21c0,4.08-1.03,7.21-3.1,9.4c-2.06,2.19-5.04,3.28-8.93,3.28c-3.89,0-6.86-1.09-8.93-3.28
		c-2.06-2.18-3.1-5.32-3.1-9.4V34.95z M85.82,61.66c0,1.82,0.37,3.11,1.12,3.85c0.74,0.75,1.74,1.12,2.99,1.12
		c1.25,0,2.24-0.37,2.99-1.12c0.74-0.74,1.12-2.03,1.12-3.85V34.45c0-1.82-0.37-3.11-1.12-3.85c-0.75-0.74-1.74-1.12-2.99-1.12
		c-1.25,0-2.24,0.37-2.99,1.12c-0.74,0.75-1.12,2.03-1.12,3.85V61.66z"/>
</g>
</svg>
